<mxfile host="app.diagrams.net" modified="2024-06-12T07:02:08.071Z" agent="Mozilla/5.0 (Macintosh; Intel Mac OS X 10_15_7) AppleWebKit/537.36 (KHTML, like Gecko) Chrome/125.0.0.0 Safari/537.36" etag="zYLH10IwuLGyboimPT_a" version="24.5.2" type="github">
  <diagram name="Page-1" id="822b0af5-4adb-64df-f703-e8dfc1f81529">
    <mxGraphModel dx="1224" dy="738" grid="1" gridSize="10" guides="1" tooltips="1" connect="1" arrows="1" fold="1" page="1" pageScale="1" pageWidth="1100" pageHeight="850" background="none" math="0" shadow="0">
      <root>
        <mxCell id="0" />
        <mxCell id="1" parent="0" />
        <mxCell id="rNgzCEydJQi0zjgkLkP2-12" style="rounded=0;orthogonalLoop=1;jettySize=auto;html=1;exitX=0.5;exitY=0;exitDx=0;exitDy=0;exitPerimeter=0;shape=link;" edge="1" parent="1" source="rNgzCEydJQi0zjgkLkP2-5" target="rNgzCEydJQi0zjgkLkP2-2">
          <mxGeometry relative="1" as="geometry" />
        </mxCell>
        <mxCell id="rNgzCEydJQi0zjgkLkP2-5" value="" style="shape=mxgraph.cisco.switches.layer_3_switch;sketch=0;html=1;pointerEvents=1;dashed=0;fillColor=#036897;strokeColor=#ffffff;strokeWidth=2;verticalLabelPosition=bottom;verticalAlign=top;align=center;outlineConnect=0;" vertex="1" parent="1">
          <mxGeometry x="220" y="500" width="64" height="64" as="geometry" />
        </mxCell>
        <mxCell id="rNgzCEydJQi0zjgkLkP2-1" value="8-ways-with-2-nodes&lt;div&gt;&lt;br&gt;&lt;/div&gt;" style="label;whiteSpace=wrap;html=1;align=center;verticalAlign=bottom;spacingLeft=0;spacingBottom=4;imageAlign=center;imageVerticalAlign=top;image=img/clipart/Gear_128x128.png" vertex="1" parent="1">
          <mxGeometry x="10" y="90" width="140" height="80" as="geometry" />
        </mxCell>
        <mxCell id="rNgzCEydJQi0zjgkLkP2-2" value="Core SW (layer 3)" style="shape=mxgraph.cisco.switches.layer_3_switch;sketch=0;html=1;pointerEvents=1;dashed=0;fillColor=#036897;strokeColor=#ffffff;strokeWidth=2;verticalLabelPosition=bottom;verticalAlign=top;align=center;outlineConnect=0;" vertex="1" parent="1">
          <mxGeometry x="360" y="250" width="64" height="64" as="geometry" />
        </mxCell>
        <mxCell id="rNgzCEydJQi0zjgkLkP2-14" style="rounded=0;orthogonalLoop=1;jettySize=auto;html=1;exitX=0.5;exitY=1;exitDx=0;exitDy=0;exitPerimeter=0;shape=link;" edge="1" parent="1" source="rNgzCEydJQi0zjgkLkP2-3" target="rNgzCEydJQi0zjgkLkP2-5">
          <mxGeometry relative="1" as="geometry" />
        </mxCell>
        <mxCell id="rNgzCEydJQi0zjgkLkP2-3" value="Core SW (layer 3)" style="shape=mxgraph.cisco.switches.layer_3_switch;sketch=0;html=1;pointerEvents=1;dashed=0;fillColor=#036897;strokeColor=#ffffff;strokeWidth=2;verticalLabelPosition=bottom;verticalAlign=top;align=center;outlineConnect=0;" vertex="1" parent="1">
          <mxGeometry x="670" y="250" width="64" height="64" as="geometry" />
        </mxCell>
        <mxCell id="rNgzCEydJQi0zjgkLkP2-4" value="" style="shape=mxgraph.cisco.switches.layer_3_switch;sketch=0;html=1;pointerEvents=1;dashed=0;fillColor=#036897;strokeColor=#ffffff;strokeWidth=2;verticalLabelPosition=bottom;verticalAlign=top;align=center;outlineConnect=0;" vertex="1" parent="1">
          <mxGeometry x="190" y="520" width="64" height="64" as="geometry" />
        </mxCell>
        <mxCell id="rNgzCEydJQi0zjgkLkP2-6" value="" style="shape=mxgraph.cisco.switches.layer_3_switch;sketch=0;html=1;pointerEvents=1;dashed=0;fillColor=#036897;strokeColor=#ffffff;strokeWidth=2;verticalLabelPosition=bottom;verticalAlign=top;align=center;outlineConnect=0;" vertex="1" parent="1">
          <mxGeometry x="420" y="500" width="64" height="64" as="geometry" />
        </mxCell>
        <mxCell id="rNgzCEydJQi0zjgkLkP2-16" style="rounded=0;orthogonalLoop=1;jettySize=auto;html=1;shape=link;" edge="1" parent="1" source="rNgzCEydJQi0zjgkLkP2-7" target="rNgzCEydJQi0zjgkLkP2-2">
          <mxGeometry relative="1" as="geometry" />
        </mxCell>
        <mxCell id="rNgzCEydJQi0zjgkLkP2-7" value="" style="shape=mxgraph.cisco.switches.layer_3_switch;sketch=0;html=1;pointerEvents=1;dashed=0;fillColor=#036897;strokeColor=#ffffff;strokeWidth=2;verticalLabelPosition=bottom;verticalAlign=top;align=center;outlineConnect=0;" vertex="1" parent="1">
          <mxGeometry x="390" y="520" width="64" height="64" as="geometry" />
        </mxCell>
        <mxCell id="rNgzCEydJQi0zjgkLkP2-8" value="" style="shape=mxgraph.cisco.switches.layer_3_switch;sketch=0;html=1;pointerEvents=1;dashed=0;fillColor=#036897;strokeColor=#ffffff;strokeWidth=2;verticalLabelPosition=bottom;verticalAlign=top;align=center;outlineConnect=0;" vertex="1" parent="1">
          <mxGeometry x="580" y="500" width="64" height="64" as="geometry" />
        </mxCell>
        <mxCell id="rNgzCEydJQi0zjgkLkP2-20" style="rounded=0;orthogonalLoop=1;jettySize=auto;html=1;shape=link;" edge="1" parent="1" source="rNgzCEydJQi0zjgkLkP2-9">
          <mxGeometry relative="1" as="geometry">
            <mxPoint x="400" y="320" as="targetPoint" />
          </mxGeometry>
        </mxCell>
        <mxCell id="rNgzCEydJQi0zjgkLkP2-9" value="" style="shape=mxgraph.cisco.switches.layer_3_switch;sketch=0;html=1;pointerEvents=1;dashed=0;fillColor=#036897;strokeColor=#ffffff;strokeWidth=2;verticalLabelPosition=bottom;verticalAlign=top;align=center;outlineConnect=0;" vertex="1" parent="1">
          <mxGeometry x="550" y="520" width="64" height="64" as="geometry" />
        </mxCell>
        <mxCell id="rNgzCEydJQi0zjgkLkP2-10" value="" style="shape=mxgraph.cisco.switches.layer_3_switch;sketch=0;html=1;pointerEvents=1;dashed=0;fillColor=#036897;strokeColor=#ffffff;strokeWidth=2;verticalLabelPosition=bottom;verticalAlign=top;align=center;outlineConnect=0;" vertex="1" parent="1">
          <mxGeometry x="780" y="500" width="64" height="64" as="geometry" />
        </mxCell>
        <mxCell id="rNgzCEydJQi0zjgkLkP2-24" style="rounded=0;orthogonalLoop=1;jettySize=auto;html=1;shape=link;" edge="1" parent="1" source="rNgzCEydJQi0zjgkLkP2-11">
          <mxGeometry relative="1" as="geometry">
            <mxPoint x="390" y="320" as="targetPoint" />
          </mxGeometry>
        </mxCell>
        <mxCell id="rNgzCEydJQi0zjgkLkP2-26" style="rounded=0;orthogonalLoop=1;jettySize=auto;html=1;shape=link;" edge="1" parent="1" source="rNgzCEydJQi0zjgkLkP2-11" target="rNgzCEydJQi0zjgkLkP2-3">
          <mxGeometry relative="1" as="geometry" />
        </mxCell>
        <mxCell id="rNgzCEydJQi0zjgkLkP2-11" value="" style="shape=mxgraph.cisco.switches.layer_3_switch;sketch=0;html=1;pointerEvents=1;dashed=0;fillColor=#036897;strokeColor=#ffffff;strokeWidth=2;verticalLabelPosition=bottom;verticalAlign=top;align=center;outlineConnect=0;" vertex="1" parent="1">
          <mxGeometry x="750" y="520" width="64" height="64" as="geometry" />
        </mxCell>
        <mxCell id="rNgzCEydJQi0zjgkLkP2-13" style="rounded=0;orthogonalLoop=1;jettySize=auto;html=1;exitX=0.5;exitY=0;exitDx=0;exitDy=0;exitPerimeter=0;shape=link;" edge="1" parent="1">
          <mxGeometry relative="1" as="geometry">
            <mxPoint x="263" y="499" as="sourcePoint" />
            <mxPoint x="382" y="313" as="targetPoint" />
          </mxGeometry>
        </mxCell>
        <mxCell id="rNgzCEydJQi0zjgkLkP2-15" style="rounded=0;orthogonalLoop=1;jettySize=auto;html=1;shape=link;exitX=0.266;exitY=1.008;exitDx=0;exitDy=0;exitPerimeter=0;" edge="1" parent="1" source="rNgzCEydJQi0zjgkLkP2-3">
          <mxGeometry relative="1" as="geometry">
            <mxPoint x="690" y="310" as="sourcePoint" />
            <mxPoint x="282" y="510" as="targetPoint" />
          </mxGeometry>
        </mxCell>
        <mxCell id="rNgzCEydJQi0zjgkLkP2-17" style="rounded=0;orthogonalLoop=1;jettySize=auto;html=1;shape=link;" edge="1" parent="1">
          <mxGeometry relative="1" as="geometry">
            <mxPoint x="428" y="520" as="sourcePoint" />
            <mxPoint x="406" y="314" as="targetPoint" />
          </mxGeometry>
        </mxCell>
        <mxCell id="rNgzCEydJQi0zjgkLkP2-18" style="rounded=0;orthogonalLoop=1;jettySize=auto;html=1;shape=link;entryX=0.5;entryY=1;entryDx=0;entryDy=0;entryPerimeter=0;" edge="1" parent="1" source="rNgzCEydJQi0zjgkLkP2-7" target="rNgzCEydJQi0zjgkLkP2-3">
          <mxGeometry relative="1" as="geometry">
            <mxPoint x="438" y="540" as="sourcePoint" />
            <mxPoint x="416" y="334" as="targetPoint" />
          </mxGeometry>
        </mxCell>
        <mxCell id="rNgzCEydJQi0zjgkLkP2-19" style="rounded=0;orthogonalLoop=1;jettySize=auto;html=1;shape=link;entryX=0.5;entryY=1;entryDx=0;entryDy=0;entryPerimeter=0;" edge="1" parent="1">
          <mxGeometry relative="1" as="geometry">
            <mxPoint x="442" y="525" as="sourcePoint" />
            <mxPoint x="690" y="314" as="targetPoint" />
          </mxGeometry>
        </mxCell>
        <mxCell id="rNgzCEydJQi0zjgkLkP2-21" style="rounded=0;orthogonalLoop=1;jettySize=auto;html=1;shape=link;" edge="1" parent="1">
          <mxGeometry relative="1" as="geometry">
            <mxPoint x="408" y="318" as="targetPoint" />
            <mxPoint x="565" y="518" as="sourcePoint" />
          </mxGeometry>
        </mxCell>
        <mxCell id="rNgzCEydJQi0zjgkLkP2-22" style="rounded=0;orthogonalLoop=1;jettySize=auto;html=1;shape=link;" edge="1" parent="1" target="rNgzCEydJQi0zjgkLkP2-3">
          <mxGeometry relative="1" as="geometry">
            <mxPoint x="425" y="320" as="targetPoint" />
            <mxPoint x="582" y="520" as="sourcePoint" />
          </mxGeometry>
        </mxCell>
        <mxCell id="rNgzCEydJQi0zjgkLkP2-23" style="rounded=0;orthogonalLoop=1;jettySize=auto;html=1;shape=link;" edge="1" parent="1">
          <mxGeometry relative="1" as="geometry">
            <mxPoint x="695" y="312" as="targetPoint" />
            <mxPoint x="591" y="518" as="sourcePoint" />
          </mxGeometry>
        </mxCell>
        <mxCell id="rNgzCEydJQi0zjgkLkP2-25" style="rounded=0;orthogonalLoop=1;jettySize=auto;html=1;shape=link;" edge="1" parent="1">
          <mxGeometry relative="1" as="geometry">
            <mxPoint x="392" y="313" as="targetPoint" />
            <mxPoint x="752" y="526" as="sourcePoint" />
          </mxGeometry>
        </mxCell>
        <mxCell id="rNgzCEydJQi0zjgkLkP2-27" style="rounded=0;orthogonalLoop=1;jettySize=auto;html=1;shape=link;" edge="1" parent="1">
          <mxGeometry relative="1" as="geometry">
            <mxPoint x="780" y="518" as="sourcePoint" />
            <mxPoint x="718" y="312" as="targetPoint" />
          </mxGeometry>
        </mxCell>
        <mxCell id="rNgzCEydJQi0zjgkLkP2-34" style="rounded=0;orthogonalLoop=1;jettySize=auto;html=1;shape=link;" edge="1" parent="1" source="rNgzCEydJQi0zjgkLkP2-28" target="rNgzCEydJQi0zjgkLkP2-4">
          <mxGeometry relative="1" as="geometry" />
        </mxCell>
        <mxCell id="rNgzCEydJQi0zjgkLkP2-28" value="" style="sketch=0;pointerEvents=1;shadow=0;dashed=0;html=1;strokeColor=none;fillColor=#505050;labelPosition=center;verticalLabelPosition=bottom;verticalAlign=top;outlineConnect=0;align=center;shape=mxgraph.office.servers.server_farm;fillColor=#2072B8;" vertex="1" parent="1">
          <mxGeometry x="164" y="640" width="56" height="49" as="geometry" />
        </mxCell>
        <mxCell id="rNgzCEydJQi0zjgkLkP2-35" style="rounded=0;orthogonalLoop=1;jettySize=auto;html=1;shape=link;" edge="1" parent="1" source="rNgzCEydJQi0zjgkLkP2-30" target="rNgzCEydJQi0zjgkLkP2-4">
          <mxGeometry relative="1" as="geometry" />
        </mxCell>
        <mxCell id="rNgzCEydJQi0zjgkLkP2-30" value="" style="sketch=0;pointerEvents=1;shadow=0;dashed=0;html=1;strokeColor=none;fillColor=#505050;labelPosition=center;verticalLabelPosition=bottom;verticalAlign=top;outlineConnect=0;align=center;shape=mxgraph.office.servers.server_farm;fillColor=#2072B8;" vertex="1" parent="1">
          <mxGeometry x="227" y="640" width="56" height="49" as="geometry" />
        </mxCell>
        <mxCell id="rNgzCEydJQi0zjgkLkP2-33" style="rounded=0;orthogonalLoop=1;jettySize=auto;html=1;shape=link;" edge="1" parent="1" source="rNgzCEydJQi0zjgkLkP2-31" target="rNgzCEydJQi0zjgkLkP2-4">
          <mxGeometry relative="1" as="geometry" />
        </mxCell>
        <mxCell id="rNgzCEydJQi0zjgkLkP2-31" value="" style="sketch=0;pointerEvents=1;shadow=0;dashed=0;html=1;strokeColor=none;fillColor=#505050;labelPosition=center;verticalLabelPosition=bottom;verticalAlign=top;outlineConnect=0;align=center;shape=mxgraph.office.servers.server_farm;fillColor=#2072B8;" vertex="1" parent="1">
          <mxGeometry x="105" y="641" width="56" height="49" as="geometry" />
        </mxCell>
        <mxCell id="rNgzCEydJQi0zjgkLkP2-32" value="" style="sketch=0;pointerEvents=1;shadow=0;dashed=0;html=1;strokeColor=none;fillColor=#505050;labelPosition=center;verticalLabelPosition=bottom;verticalAlign=top;outlineConnect=0;align=center;shape=mxgraph.office.servers.server_farm;fillColor=#2072B8;" vertex="1" parent="1">
          <mxGeometry x="290" y="641" width="56" height="49" as="geometry" />
        </mxCell>
        <mxCell id="rNgzCEydJQi0zjgkLkP2-36" style="rounded=0;orthogonalLoop=1;jettySize=auto;html=1;entryX=0.95;entryY=0.94;entryDx=0;entryDy=0;entryPerimeter=0;shape=link;" edge="1" parent="1" source="rNgzCEydJQi0zjgkLkP2-32" target="rNgzCEydJQi0zjgkLkP2-4">
          <mxGeometry relative="1" as="geometry" />
        </mxCell>
        <mxCell id="rNgzCEydJQi0zjgkLkP2-47" style="rounded=0;orthogonalLoop=1;jettySize=auto;html=1;shape=link;" edge="1" parent="1" source="rNgzCEydJQi0zjgkLkP2-37" target="rNgzCEydJQi0zjgkLkP2-7">
          <mxGeometry relative="1" as="geometry" />
        </mxCell>
        <mxCell id="rNgzCEydJQi0zjgkLkP2-37" value="" style="sketch=0;pointerEvents=1;shadow=0;dashed=0;html=1;strokeColor=none;fillColor=#505050;labelPosition=center;verticalLabelPosition=bottom;verticalAlign=top;outlineConnect=0;align=center;shape=mxgraph.office.servers.server_farm;fillColor=#7FBA42;" vertex="1" parent="1">
          <mxGeometry x="368" y="640" width="56" height="49" as="geometry" />
        </mxCell>
        <mxCell id="rNgzCEydJQi0zjgkLkP2-38" value="" style="sketch=0;pointerEvents=1;shadow=0;dashed=0;html=1;strokeColor=none;fillColor=#505050;labelPosition=center;verticalLabelPosition=bottom;verticalAlign=top;outlineConnect=0;align=center;shape=mxgraph.office.servers.server_farm;fillColor=#7FBA42;" vertex="1" parent="1">
          <mxGeometry x="428" y="640" width="56" height="49" as="geometry" />
        </mxCell>
        <mxCell id="rNgzCEydJQi0zjgkLkP2-49" style="rounded=0;orthogonalLoop=1;jettySize=auto;html=1;shape=link;" edge="1" parent="1" source="rNgzCEydJQi0zjgkLkP2-39">
          <mxGeometry relative="1" as="geometry">
            <mxPoint x="460" y="580" as="targetPoint" />
          </mxGeometry>
        </mxCell>
        <mxCell id="rNgzCEydJQi0zjgkLkP2-39" value="" style="sketch=0;pointerEvents=1;shadow=0;dashed=0;html=1;strokeColor=none;fillColor=#505050;labelPosition=center;verticalLabelPosition=bottom;verticalAlign=top;outlineConnect=0;align=center;shape=mxgraph.office.servers.server_farm;fillColor=#7FBA42;" vertex="1" parent="1">
          <mxGeometry x="490" y="640" width="60" height="49" as="geometry" />
        </mxCell>
        <mxCell id="rNgzCEydJQi0zjgkLkP2-41" value="" style="sketch=0;pointerEvents=1;shadow=0;dashed=0;html=1;strokeColor=none;fillColor=#505050;labelPosition=center;verticalLabelPosition=bottom;verticalAlign=top;outlineConnect=0;align=center;shape=mxgraph.office.servers.server_farm;fillColor=#DA4026;" vertex="1" parent="1">
          <mxGeometry x="560" y="640" width="56" height="49" as="geometry" />
        </mxCell>
        <mxCell id="rNgzCEydJQi0zjgkLkP2-42" value="" style="sketch=0;pointerEvents=1;shadow=0;dashed=0;html=1;strokeColor=none;fillColor=#505050;labelPosition=center;verticalLabelPosition=bottom;verticalAlign=top;outlineConnect=0;align=center;shape=mxgraph.office.servers.server_farm;fillColor=#DA4026;" vertex="1" parent="1">
          <mxGeometry x="616" y="640" width="56" height="49" as="geometry" />
        </mxCell>
        <mxCell id="rNgzCEydJQi0zjgkLkP2-52" style="rounded=0;orthogonalLoop=1;jettySize=auto;html=1;shape=link;" edge="1" parent="1" source="rNgzCEydJQi0zjgkLkP2-43">
          <mxGeometry relative="1" as="geometry">
            <mxPoint x="620" y="580" as="targetPoint" />
          </mxGeometry>
        </mxCell>
        <mxCell id="rNgzCEydJQi0zjgkLkP2-43" value="" style="sketch=0;pointerEvents=1;shadow=0;dashed=0;html=1;strokeColor=none;fillColor=#505050;labelPosition=center;verticalLabelPosition=bottom;verticalAlign=top;outlineConnect=0;align=center;shape=mxgraph.office.servers.server_farm;fillColor=#DA4026;" vertex="1" parent="1">
          <mxGeometry x="670" y="640" width="56" height="49" as="geometry" />
        </mxCell>
        <mxCell id="rNgzCEydJQi0zjgkLkP2-53" style="rounded=0;orthogonalLoop=1;jettySize=auto;html=1;shape=link;" edge="1" parent="1" source="rNgzCEydJQi0zjgkLkP2-44" target="rNgzCEydJQi0zjgkLkP2-11">
          <mxGeometry relative="1" as="geometry" />
        </mxCell>
        <mxCell id="rNgzCEydJQi0zjgkLkP2-44" value="" style="sketch=0;pointerEvents=1;shadow=0;dashed=0;html=1;strokeColor=none;fillColor=#505050;labelPosition=center;verticalLabelPosition=bottom;verticalAlign=top;outlineConnect=0;align=center;shape=mxgraph.office.servers.server_farm;" vertex="1" parent="1">
          <mxGeometry x="734" y="640" width="56" height="49" as="geometry" />
        </mxCell>
        <mxCell id="rNgzCEydJQi0zjgkLkP2-45" value="" style="sketch=0;pointerEvents=1;shadow=0;dashed=0;html=1;strokeColor=none;fillColor=#505050;labelPosition=center;verticalLabelPosition=bottom;verticalAlign=top;outlineConnect=0;align=center;shape=mxgraph.office.servers.server_farm;" vertex="1" parent="1">
          <mxGeometry x="792" y="641" width="56" height="49" as="geometry" />
        </mxCell>
        <mxCell id="rNgzCEydJQi0zjgkLkP2-55" style="rounded=0;orthogonalLoop=1;jettySize=auto;html=1;shape=link;" edge="1" parent="1" source="rNgzCEydJQi0zjgkLkP2-46">
          <mxGeometry relative="1" as="geometry">
            <mxPoint x="830" y="580" as="targetPoint" />
          </mxGeometry>
        </mxCell>
        <mxCell id="rNgzCEydJQi0zjgkLkP2-46" value="" style="sketch=0;pointerEvents=1;shadow=0;dashed=0;html=1;strokeColor=none;fillColor=#505050;labelPosition=center;verticalLabelPosition=bottom;verticalAlign=top;outlineConnect=0;align=center;shape=mxgraph.office.servers.server_farm;" vertex="1" parent="1">
          <mxGeometry x="848" y="639" width="56" height="50" as="geometry" />
        </mxCell>
        <mxCell id="rNgzCEydJQi0zjgkLkP2-48" style="rounded=0;orthogonalLoop=1;jettySize=auto;html=1;entryX=0.95;entryY=0.94;entryDx=0;entryDy=0;entryPerimeter=0;shape=link;" edge="1" parent="1" source="rNgzCEydJQi0zjgkLkP2-38" target="rNgzCEydJQi0zjgkLkP2-7">
          <mxGeometry relative="1" as="geometry" />
        </mxCell>
        <mxCell id="rNgzCEydJQi0zjgkLkP2-50" style="rounded=0;orthogonalLoop=1;jettySize=auto;html=1;entryX=0.5;entryY=1;entryDx=0;entryDy=0;entryPerimeter=0;shape=link;" edge="1" parent="1" source="rNgzCEydJQi0zjgkLkP2-41" target="rNgzCEydJQi0zjgkLkP2-9">
          <mxGeometry relative="1" as="geometry" />
        </mxCell>
        <mxCell id="rNgzCEydJQi0zjgkLkP2-51" style="rounded=0;orthogonalLoop=1;jettySize=auto;html=1;entryX=0.95;entryY=0.94;entryDx=0;entryDy=0;entryPerimeter=0;shape=link;" edge="1" parent="1" source="rNgzCEydJQi0zjgkLkP2-42" target="rNgzCEydJQi0zjgkLkP2-9">
          <mxGeometry relative="1" as="geometry" />
        </mxCell>
        <mxCell id="rNgzCEydJQi0zjgkLkP2-54" style="rounded=0;orthogonalLoop=1;jettySize=auto;html=1;entryX=0.95;entryY=0.94;entryDx=0;entryDy=0;entryPerimeter=0;shape=link;" edge="1" parent="1" source="rNgzCEydJQi0zjgkLkP2-45" target="rNgzCEydJQi0zjgkLkP2-11">
          <mxGeometry relative="1" as="geometry" />
        </mxCell>
        <mxCell id="rNgzCEydJQi0zjgkLkP2-56" value="Note Line 1&#xa;Note Line 2&#xa;Note Line 3" style="strokeWidth=1;shadow=0;dashed=0;align=center;html=1;shape=mxgraph.mockup.text.stickyNote2;fontColor=#666666;mainText=;fontSize=17;whiteSpace=wrap;fillColor=#ffffcc;strokeColor=#F62E00;" vertex="1" parent="1">
          <mxGeometry x="800" y="250" width="200" height="200" as="geometry" />
        </mxCell>
      </root>
    </mxGraphModel>
  </diagram>
</mxfile>
